<svg width="50" height="63" viewBox="0 0 50 63" fill="none" xmlns="http://www.w3.org/2000/svg">
<path d="M15.6491 62.208C13.8731 62.208 12.3131 62.064 10.9691 61.776C9.62513 61.488 8.44913 60.792 7.44113 59.688C6.48113 58.584 6.00113 56.88 6.00113 54.576C6.00113 51.36 6.96113 47.04 8.88113 41.616C10.8491 36.192 13.4171 30.744 16.5851 25.272C14.1851 25.416 12.2891 25.776 10.8971 26.352C9.50513 26.928 8.59313 27.816 8.16113 29.016C8.35313 29.016 8.54513 29.256 8.73713 29.736C8.97713 30.216 9.09713 30.72 9.09713 31.248C9.09713 32.112 8.71313 32.808 7.94513 33.336C7.17713 33.816 6.21713 34.056 5.06513 34.056C3.72113 34.056 2.64113 33.696 1.82513 32.976C1.00913 32.256 0.601125 31.224 0.601125 29.88C0.601125 28.248 1.22513 26.76 2.47313 25.416C3.76913 24.072 5.54513 23.016 7.80113 22.248C10.0571 21.432 12.5531 21.024 15.2891 21.024C16.2971 21.024 17.5451 21.096 19.0331 21.24C22.9691 15 27.1211 9.912 31.4891 5.976C35.9051 1.992 40.1051 -4.29153e-06 44.0891 -4.29153e-06C46.3931 -4.29153e-06 48.2891 0.335996 49.7771 1.008L38.4731 54H28.1051L33.6491 27.864C31.8731 27.048 30.2411 26.448 28.7531 26.064C27.2651 25.68 25.6811 25.416 24.0011 25.272C21.2651 31.176 19.0091 37.224 17.2331 43.416C15.5051 49.56 14.6411 54.48 14.6411 58.176C14.6411 60 14.9771 61.344 15.6491 62.208ZM38.4731 5.112C36.4091 6.216 34.2491 8.28 31.9931 11.304C29.7851 14.28 27.6251 17.904 25.5131 22.176C28.9691 22.848 31.8971 23.688 34.2971 24.696L38.4731 5.112Z" fill="#CF1B1B"/>
</svg>
